# xmcd CD database file
#
# Track frame offsets:
#	150
#	20064
#	47811
#	64726
#	103480
#	123237
#	146297
#	163834
#	189563
#	212033
#
# Disc length: 3189 seconds
#
# Revision: 0
# Processed by: cddbd v1.4PL0 Copyright (c) Steve Scherf et al.
# Submitted via: CDex 1.40Release
#
DISCID=950c730a
DTITLE=James Solberg - L.A. Blues
DYEAR=1998
DGENRE=Blues
TTITLE0=Bubbas's Boogie
TTITLE1=L.A. Blues
TTITLE2=Wally World U.S.A.
TTITLE3=Ballad Of A Thin Man
TTITLE4=Must Be A Reason
TTITLE5=Rhumba Juice
TTITLE6=Robb's Souffle
TTITLE7=Say Goodbye
TTITLE8=Just A Closer Walk With Thee
TTITLE9=Happy Snails
EXTD=YEAR: 1998 ID3G: 0
EXTT0=
EXTT1=
EXTT2=
EXTT3=
EXTT4=
EXTT5=
EXTT6=
EXTT7=
EXTT8=
EXTT9=
PLAYORDER=
